<mxfile host="app.diagrams.net" agent="Mozilla/5.0 (Macintosh; Intel Mac OS X 10_15_7) AppleWebKit/537.36 (KHTML, like Gecko) Chrome/128.0.0.0 Safari/537.36" version="24.7.17">
  <diagram name="Page-1" id="ux8JnvqEMzi3ty05sOUj">
    <mxGraphModel dx="1031" dy="724" grid="1" gridSize="10" guides="1" tooltips="1" connect="1" arrows="1" fold="1" page="1" pageScale="1" pageWidth="850" pageHeight="1100" math="0" shadow="0">
      <root>
        <mxCell id="0" />
        <mxCell id="1" parent="0" />
        <mxCell id="KUi_KwyCBHFXE5MmbkIc-20" style="edgeStyle=orthogonalEdgeStyle;rounded=0;orthogonalLoop=1;jettySize=auto;html=1;entryX=1;entryY=0.5;entryDx=0;entryDy=0;exitX=0.5;exitY=0;exitDx=0;exitDy=0;" edge="1" parent="1" source="KUi_KwyCBHFXE5MmbkIc-3" target="KUi_KwyCBHFXE5MmbkIc-16">
          <mxGeometry relative="1" as="geometry" />
        </mxCell>
        <mxCell id="KUi_KwyCBHFXE5MmbkIc-3" value="dividend_capture" style="rounded=1;whiteSpace=wrap;html=1;" vertex="1" parent="1">
          <mxGeometry x="600" y="270" width="160" height="90" as="geometry" />
        </mxCell>
        <mxCell id="KUi_KwyCBHFXE5MmbkIc-18" style="edgeStyle=orthogonalEdgeStyle;rounded=0;orthogonalLoop=1;jettySize=auto;html=1;entryX=0;entryY=0.5;entryDx=0;entryDy=0;exitX=0.5;exitY=0;exitDx=0;exitDy=0;" edge="1" parent="1" source="KUi_KwyCBHFXE5MmbkIc-4" target="KUi_KwyCBHFXE5MmbkIc-16">
          <mxGeometry relative="1" as="geometry" />
        </mxCell>
        <mxCell id="KUi_KwyCBHFXE5MmbkIc-4" value="option_analyzer" style="rounded=1;whiteSpace=wrap;html=1;" vertex="1" parent="1">
          <mxGeometry x="80" y="270" width="160" height="90" as="geometry" />
        </mxCell>
        <mxCell id="KUi_KwyCBHFXE5MmbkIc-19" style="edgeStyle=orthogonalEdgeStyle;rounded=0;orthogonalLoop=1;jettySize=auto;html=1;entryX=0.5;entryY=1;entryDx=0;entryDy=0;" edge="1" parent="1" source="KUi_KwyCBHFXE5MmbkIc-5" target="KUi_KwyCBHFXE5MmbkIc-16">
          <mxGeometry relative="1" as="geometry" />
        </mxCell>
        <mxCell id="KUi_KwyCBHFXE5MmbkIc-5" value="technical_analyzer" style="rounded=1;whiteSpace=wrap;html=1;" vertex="1" parent="1">
          <mxGeometry x="330" y="270" width="160" height="90" as="geometry" />
        </mxCell>
        <mxCell id="KUi_KwyCBHFXE5MmbkIc-7" style="edgeStyle=orthogonalEdgeStyle;rounded=0;orthogonalLoop=1;jettySize=auto;html=1;entryX=0.5;entryY=1;entryDx=0;entryDy=0;" edge="1" parent="1" source="KUi_KwyCBHFXE5MmbkIc-6" target="KUi_KwyCBHFXE5MmbkIc-3">
          <mxGeometry relative="1" as="geometry" />
        </mxCell>
        <mxCell id="KUi_KwyCBHFXE5MmbkIc-6" value="Fundamental Data Source fusion" style="rounded=1;whiteSpace=wrap;html=1;" vertex="1" parent="1">
          <mxGeometry x="580" y="460" width="200" height="50" as="geometry" />
        </mxCell>
        <mxCell id="KUi_KwyCBHFXE5MmbkIc-8" value="EOD Data" style="rounded=1;whiteSpace=wrap;html=1;" vertex="1" parent="1">
          <mxGeometry x="500" y="580" width="140" height="50" as="geometry" />
        </mxCell>
        <mxCell id="KUi_KwyCBHFXE5MmbkIc-9" value="Other data" style="rounded=1;whiteSpace=wrap;html=1;" vertex="1" parent="1">
          <mxGeometry x="690" y="580" width="140" height="50" as="geometry" />
        </mxCell>
        <mxCell id="KUi_KwyCBHFXE5MmbkIc-10" style="edgeStyle=orthogonalEdgeStyle;rounded=0;orthogonalLoop=1;jettySize=auto;html=1;entryX=0.32;entryY=1.08;entryDx=0;entryDy=0;entryPerimeter=0;" edge="1" parent="1" source="KUi_KwyCBHFXE5MmbkIc-8" target="KUi_KwyCBHFXE5MmbkIc-6">
          <mxGeometry relative="1" as="geometry" />
        </mxCell>
        <mxCell id="KUi_KwyCBHFXE5MmbkIc-11" style="edgeStyle=orthogonalEdgeStyle;rounded=0;orthogonalLoop=1;jettySize=auto;html=1;entryX=0.65;entryY=1;entryDx=0;entryDy=0;entryPerimeter=0;" edge="1" parent="1" source="KUi_KwyCBHFXE5MmbkIc-9" target="KUi_KwyCBHFXE5MmbkIc-6">
          <mxGeometry relative="1" as="geometry" />
        </mxCell>
        <mxCell id="KUi_KwyCBHFXE5MmbkIc-13" style="edgeStyle=orthogonalEdgeStyle;rounded=0;orthogonalLoop=1;jettySize=auto;html=1;entryX=0.5;entryY=1;entryDx=0;entryDy=0;exitX=0.785;exitY=-0.04;exitDx=0;exitDy=0;exitPerimeter=0;" edge="1" parent="1" source="KUi_KwyCBHFXE5MmbkIc-12" target="KUi_KwyCBHFXE5MmbkIc-5">
          <mxGeometry relative="1" as="geometry" />
        </mxCell>
        <mxCell id="KUi_KwyCBHFXE5MmbkIc-15" style="edgeStyle=orthogonalEdgeStyle;rounded=0;orthogonalLoop=1;jettySize=auto;html=1;entryX=0.5;entryY=1;entryDx=0;entryDy=0;exitX=0.25;exitY=0;exitDx=0;exitDy=0;" edge="1" parent="1" source="KUi_KwyCBHFXE5MmbkIc-12" target="KUi_KwyCBHFXE5MmbkIc-4">
          <mxGeometry relative="1" as="geometry" />
        </mxCell>
        <mxCell id="KUi_KwyCBHFXE5MmbkIc-12" value="high frequency trading data (seconds)" style="rounded=1;whiteSpace=wrap;html=1;" vertex="1" parent="1">
          <mxGeometry x="180" y="490" width="200" height="50" as="geometry" />
        </mxCell>
        <mxCell id="KUi_KwyCBHFXE5MmbkIc-21" style="edgeStyle=orthogonalEdgeStyle;rounded=0;orthogonalLoop=1;jettySize=auto;html=1;entryX=0.5;entryY=1;entryDx=0;entryDy=0;" edge="1" parent="1" source="KUi_KwyCBHFXE5MmbkIc-16" target="KUi_KwyCBHFXE5MmbkIc-17">
          <mxGeometry relative="1" as="geometry" />
        </mxCell>
        <mxCell id="KUi_KwyCBHFXE5MmbkIc-24" value="BUY/SELL" style="edgeLabel;html=1;align=center;verticalAlign=middle;resizable=0;points=[];" vertex="1" connectable="0" parent="KUi_KwyCBHFXE5MmbkIc-21">
          <mxGeometry x="-0.04" y="1" relative="1" as="geometry">
            <mxPoint as="offset" />
          </mxGeometry>
        </mxCell>
        <mxCell id="KUi_KwyCBHFXE5MmbkIc-16" value="stock_broker" style="rounded=1;whiteSpace=wrap;html=1;" vertex="1" parent="1">
          <mxGeometry x="330" y="130" width="160" height="70" as="geometry" />
        </mxCell>
        <mxCell id="KUi_KwyCBHFXE5MmbkIc-17" value="market order API" style="rounded=1;whiteSpace=wrap;html=1;" vertex="1" parent="1">
          <mxGeometry x="330" y="10" width="160" height="70" as="geometry" />
        </mxCell>
        <mxCell id="KUi_KwyCBHFXE5MmbkIc-23" style="edgeStyle=orthogonalEdgeStyle;rounded=0;orthogonalLoop=1;jettySize=auto;html=1;entryX=1;entryY=0.75;entryDx=0;entryDy=0;" edge="1" parent="1" source="KUi_KwyCBHFXE5MmbkIc-22" target="KUi_KwyCBHFXE5MmbkIc-16">
          <mxGeometry relative="1" as="geometry">
            <Array as="points">
              <mxPoint x="420" y="470" />
              <mxPoint x="540" y="470" />
              <mxPoint x="540" y="183" />
            </Array>
          </mxGeometry>
        </mxCell>
        <mxCell id="KUi_KwyCBHFXE5MmbkIc-22" value="current cash on-hand" style="rounded=1;whiteSpace=wrap;html=1;" vertex="1" parent="1">
          <mxGeometry x="380" y="565" width="80" height="80" as="geometry" />
        </mxCell>
      </root>
    </mxGraphModel>
  </diagram>
</mxfile>
